<svg width="83" height="9" viewBox="0 0 83 9" fill="none" xmlns="http://www.w3.org/2000/svg">
<path d="M5.724 0.404L5.652 1.34L4.26 1.268H3.612L3.552 5.576L3.612 8H2.364L2.436 5.684L2.376 1.268H1.728L0.312 1.34L0.228 1.232L0.324 0.296H5.652L5.724 0.404ZM13.1057 5.576L13.1417 8H11.9057L11.9657 5.684L11.9537 4.64L9.98569 4.628L8.18569 4.64L8.17369 5.576L8.22169 8H6.99769L7.04569 5.684L6.99769 0.296H8.23369L8.19769 3.608L10.0817 3.632L11.9417 3.608L11.9057 0.296H13.1657L13.1057 5.576ZM19.7951 6.944L19.8671 7.052L19.7831 8H15.2351L15.3191 5.684L15.2351 0.296H19.8071L19.8791 0.404L19.7831 1.352L17.9591 1.304L16.4951 1.316L16.4591 3.56L17.8511 3.584L19.1231 3.548L19.2071 3.644L19.1111 4.592L17.7551 4.556L16.4471 4.58L16.4351 5.576L16.4711 6.992L17.9351 7.004L19.7951 6.944ZM26.003 0.248C27.107 0.248 27.955 0.56 28.547 1.184C29.139 1.808 29.435 2.704 29.435 3.872C29.435 5.224 29.111 6.264 28.463 6.992C27.815 7.712 26.883 8.072 25.667 8.072C25.323 8.072 24.911 8.064 24.431 8.048C23.951 8.04 23.503 8.024 23.087 8H23.075L23.159 5.684L23.075 0.296H23.087L26.003 0.248ZM25.883 7.088C26.619 7.088 27.179 6.844 27.563 6.356C27.955 5.868 28.151 5.132 28.151 4.148C28.151 3.156 27.963 2.428 27.587 1.964C27.219 1.492 26.659 1.256 25.907 1.256C25.467 1.256 24.943 1.272 24.335 1.304L24.275 5.576L24.311 7.004C24.599 7.028 24.887 7.048 25.175 7.064C25.463 7.08 25.699 7.088 25.883 7.088ZM36.4879 8H35.2159L35.0359 7.136L34.6999 6.068L33.0679 6.032L31.5919 6.068L31.2319 7.076L31.0399 8H29.8039L32.5519 0.296H34.0039L36.4879 8ZM34.3879 5.06L33.2839 1.508H33.1999L31.9399 5.06L33.1519 5.084L34.3879 5.06ZM39.8135 5.792L39.8615 8H38.6255L38.6855 5.792L38.6735 5.324L36.2375 0.296H37.5575L37.7135 0.775999L39.2375 4.004H39.3335L41.0255 0.8L41.2175 0.296H42.5015L39.8255 5.264L39.8135 5.792ZM49.1515 3.992C49.6875 4.104 50.0835 4.316 50.3395 4.628C50.6035 4.932 50.7355 5.336 50.7355 5.84C50.7355 7.312 49.6355 8.048 47.4355 8.048C46.6755 8.048 46.0515 8.032 45.5635 8H45.5515L45.6355 5.684L45.5515 0.296L47.9515 0.284C48.6955 0.284 49.2715 0.448 49.6795 0.775999C50.0955 1.096 50.3035 1.564 50.3035 2.18C50.3035 2.612 50.2035 2.984 50.0035 3.296C49.8035 3.6 49.5195 3.832 49.1515 3.992ZM49.0315 2.324C49.0315 1.94 48.9235 1.664 48.7075 1.496C48.4915 1.328 48.1275 1.244 47.6155 1.244H46.7995L46.7635 3.608L47.9995 3.644C48.3515 3.556 48.6115 3.408 48.7795 3.2C48.9475 2.984 49.0315 2.692 49.0315 2.324ZM47.6395 7.088C48.2315 7.088 48.6875 6.976 49.0075 6.752C49.3275 6.528 49.4875 6.2 49.4875 5.768C49.4875 5.08 49.0435 4.676 48.1555 4.556L46.7515 4.568L46.7395 5.576L46.7755 7.052C47.0875 7.076 47.3755 7.088 47.6395 7.088ZM56.7561 6.944L56.8281 7.052L56.7441 8H52.1961L52.2801 5.684L52.1961 0.296H56.7681L56.8401 0.404L56.7441 1.352L54.9201 1.304L53.4561 1.316L53.4201 3.56L54.8121 3.584L56.0841 3.548L56.1681 3.644L56.0721 4.592L54.7161 4.556L53.4081 4.58L53.3961 5.576L53.4321 6.992L54.8961 7.004L56.7561 6.944ZM59.374 1.316L59.338 3.74L60.55 3.764L61.822 3.728L61.906 3.836L61.81 4.772L60.442 4.736L59.326 4.748L59.314 5.576L59.374 8H58.114L58.198 5.684L58.114 0.296H62.422L62.506 0.404L62.41 1.376L60.61 1.304L59.374 1.316ZM66.3383 0.2C67.4023 0.2 68.2223 0.528 68.7983 1.184C69.3743 1.84 69.6623 2.776 69.6623 3.992C69.6623 5.304 69.3543 6.32 68.7383 7.04C68.1223 7.752 67.2463 8.108 66.1103 8.108C65.0543 8.108 64.2383 7.772 63.6623 7.1C63.0943 6.42 62.8103 5.46 62.8103 4.22C62.8103 2.932 63.1143 1.94 63.7223 1.244C64.3383 0.548 65.2103 0.2 66.3383 0.2ZM66.2423 1.208C65.5143 1.208 64.9703 1.444 64.6103 1.916C64.2583 2.38 64.0823 3.1 64.0823 4.076C64.0823 5.14 64.2543 5.92 64.5983 6.416C64.9503 6.904 65.4903 7.148 66.2183 7.148C66.9543 7.148 67.4983 6.912 67.8503 6.44C68.2023 5.968 68.3783 5.232 68.3783 4.232C68.3783 3.184 68.2023 2.42 67.8503 1.94C67.5063 1.452 66.9703 1.208 66.2423 1.208ZM74.603 4.916C75.147 5.788 75.791 6.72 76.535 7.712L76.523 7.856C76.139 7.984 75.743 8.068 75.335 8.108L75.191 8.012C74.527 6.924 73.991 6.004 73.583 5.252H72.275V5.576L72.335 8H71.075L71.159 5.684L71.075 0.296L73.691 0.284C74.467 0.284 75.067 0.48 75.491 0.872C75.915 1.256 76.127 1.808 76.127 2.528C76.127 3.04 75.991 3.504 75.719 3.92C75.455 4.328 75.083 4.66 74.603 4.916ZM72.299 4.244L73.619 4.28C74.427 4.032 74.831 3.48 74.831 2.624C74.831 2.176 74.707 1.84 74.459 1.616C74.219 1.392 73.851 1.272 73.355 1.256L72.335 1.292L72.299 4.244ZM82.4787 6.944L82.5507 7.052L82.4667 8H77.9187L78.0027 5.684L77.9187 0.296H82.4907L82.5627 0.404L82.4667 1.352L80.6427 1.304L79.1787 1.316L79.1427 3.56L80.5347 3.584L81.8067 3.548L81.8907 3.644L81.7947 4.592L80.4387 4.556L79.1307 4.58L79.1187 5.576L79.1547 6.992L80.6187 7.004L82.4787 6.944Z" fill="#E97070"/>
</svg>
